<svg width="667" height="667" viewBox="0 0 667 667" fill="none" xmlns="http://www.w3.org/2000/svg">
<mask id="mask0_19_5" style="mask-type:luminance" maskUnits="userSpaceOnUse" x="0" y="0" width="667" height="667">
<path d="M0 -9.53674e-07H666.667V666.667H0V-9.53674e-07Z" fill="white"/>
</mask>
<g mask="url(#mask0_19_5)">
<mask id="mask1_19_5" style="mask-type:luminance" maskUnits="userSpaceOnUse" x="218" y="595" width="225" height="33">
<path d="M218.468 595.736H442.349V627.932H218.468V595.736Z" fill="white"/>
</mask>
<g mask="url(#mask1_19_5)">
<g opacity="0.300003">
<path d="M442.35 611.835C442.35 620.725 392.232 627.932 330.409 627.932C268.586 627.932 218.468 620.725 218.468 611.835C218.468 602.944 268.586 595.736 330.409 595.736C392.232 595.736 442.35 602.944 442.35 611.835Z" fill="#3D3D3D"/>
</g>
</g>
<path d="M342.823 572.151C342.703 572.51 340.018 578.598 340.018 578.598L340.051 584.83L360.25 595.811L367.174 588.339L362.876 581.462L363.235 576.33L342.823 572.151Z" fill="#C9EEF0"/>
<path d="M317.995 572.151C318.115 572.51 320.8 578.598 320.8 578.598L320.767 584.83L300.568 595.811L293.644 588.339L297.941 581.462L297.583 576.33L317.995 572.151Z" fill="#C9EEF0"/>
<mask id="mask2_19_5" style="mask-type:luminance" maskUnits="userSpaceOnUse" x="340" y="572" width="24" height="18">
<path d="M340.019 572.152H363.235V589.894H340.019V572.152Z" fill="white"/>
</mask>
<g mask="url(#mask2_19_5)">
<g opacity="0.300003">
<path d="M363.234 576.329L342.822 572.151C342.704 572.509 340.018 578.597 340.018 578.597L340.05 584.829L349.366 589.893C349.316 589.331 349.268 588.981 349.268 588.981L348.116 582.835C348.116 582.835 349.448 583.252 353.029 582.835C355.156 582.585 359.998 581.452 362.949 580.419L363.234 576.329Z" fill="#3D3D3D"/>
</g>
</g>
<mask id="mask3_19_5" style="mask-type:luminance" maskUnits="userSpaceOnUse" x="297" y="572" width="24" height="18">
<path d="M297.584 572.152H320.8V589.894H297.584V572.152Z" fill="white"/>
</mask>
<g mask="url(#mask3_19_5)">
<g opacity="0.300003">
<path d="M297.583 576.329L317.995 572.151C318.114 572.509 320.799 578.597 320.799 578.597L320.767 584.829L311.453 589.893C311.503 589.331 311.55 588.981 311.55 588.981L312.702 582.835C312.702 582.835 311.37 583.252 307.789 582.835C305.662 582.585 300.819 581.452 297.869 580.419L297.583 576.329Z" fill="#3D3D3D"/>
</g>
</g>
<path d="M330.409 386.354L377.699 413.23C377.699 413.23 375.921 464.722 368.742 513.423C368.742 513.423 367.889 555.679 363.294 578.598C363.294 578.598 349.629 582.894 340.018 578.598C340.018 578.598 338.769 516.647 337.453 508.769C336.559 503.417 332.757 456.382 330.409 439.298C328.062 456.382 324.258 503.417 323.365 508.769C322.05 516.647 320.799 578.598 320.799 578.598C311.189 582.894 297.523 578.598 297.523 578.598C292.929 555.679 292.075 513.423 292.075 513.423C284.897 464.722 283.119 413.23 283.119 413.23L330.409 386.354Z" fill="#3D3D3D"/>
<path d="M449.651 310.38L447.327 300.88L449.232 294.087C450.424 289.833 452.348 285.821 454.918 282.227L459.134 276.332C459.995 275.128 461.822 275.256 462.507 276.568C463.27 278.028 463.459 279.721 463.039 281.316L461.012 289.003L467.675 281.459L473.584 270.699C474.747 268.581 477.568 268.081 479.39 269.671L486.09 275.521C488.403 277.541 489.326 280.728 488.446 283.671L485.518 293.465C483.091 301.585 477.422 308.344 469.848 312.145L461.284 317.208L449.651 310.38Z" fill="#FFDDC0"/>
<path d="M211.167 310.38L213.491 300.88L211.586 294.087C210.393 289.833 208.469 285.821 205.899 282.227L201.685 276.332C200.825 275.128 198.997 275.256 198.311 276.568C197.549 278.028 197.359 279.721 197.778 281.316L199.806 289.003L193.143 281.459L187.234 270.699C186.07 268.581 183.249 268.081 181.429 269.671L174.727 275.521C172.414 277.541 171.493 280.728 172.373 283.671L175.301 293.465C177.726 301.585 183.395 308.344 190.97 312.145L199.534 317.208L211.167 310.38Z" fill="#FFDDC0"/>
<path d="M456.723 311.871C456.439 312.647 456.287 313.431 456.187 314.216L461.284 317.207L469.849 312.146C477.421 308.343 483.091 301.586 485.519 293.466L488.445 283.671C489.325 280.728 488.405 277.542 486.089 275.522L486.029 275.468C485.031 280.831 482.703 292.16 480.272 295.607C480.272 295.607 474.363 288.36 470.604 286.57C470.604 286.57 477.229 295.88 477.049 298.924C476.871 301.968 475.259 303.938 470.604 304.832C465.949 305.728 460.028 302.795 456.723 311.871Z" fill="#FFC8A5"/>
<path d="M204.096 311.871C204.379 312.647 204.532 313.431 204.631 314.216L199.534 317.207L190.97 312.146C183.396 308.343 177.727 301.586 175.3 293.466L172.374 283.671C171.492 280.728 172.414 277.542 174.728 275.522L174.79 275.468C175.787 280.831 178.115 292.16 180.546 295.607C180.546 295.607 186.455 288.36 190.214 286.57C190.214 286.57 183.59 295.88 183.768 298.924C183.947 301.968 185.559 303.938 190.214 304.832C194.87 305.728 200.79 302.795 204.096 311.871Z" fill="#FFC8A5"/>
<path d="M376.962 297.372L384.84 289.852L412.77 325.946L438.554 307.899L452.161 325.946L421.712 356.356C418.976 359.09 414.741 359.634 411.404 357.683L378.297 338.334L376.962 297.372Z" fill="#3D3D3D"/>
<path d="M283.857 297.372L275.978 289.852L248.047 325.946L222.263 307.899L208.657 325.946L239.106 356.356C241.842 359.09 246.077 359.634 249.414 357.683L282.522 338.334L283.857 297.372Z" fill="#3D3D3D"/>
<mask id="mask4_19_5" style="mask-type:luminance" maskUnits="userSpaceOnUse" x="377" y="319" width="76" height="40">
<path d="M377.699 319.533H452.161V358.845H377.699V319.533Z" fill="white"/>
</mask>
<g mask="url(#mask4_19_5)">
<g opacity="0.300003">
<path d="M447.327 319.534C435.866 331.902 418.859 346.012 414.562 346.283C411.79 346.455 390.334 330.479 377.699 319.992L378.298 338.334L411.404 357.682C414.742 359.634 418.975 359.09 421.711 356.356L452.162 325.946L447.327 319.534Z" fill="#3D3D3D"/>
</g>
</g>
<mask id="mask5_19_5" style="mask-type:luminance" maskUnits="userSpaceOnUse" x="208" y="319" width="76" height="40">
<path d="M208.656 319.533H283.12V358.845H208.656V319.533Z" fill="white"/>
</mask>
<g mask="url(#mask5_19_5)">
<g opacity="0.300003">
<path d="M213.491 319.534C224.952 331.902 241.959 346.012 246.256 346.283C249.03 346.455 270.484 330.479 283.12 319.992L282.522 338.334L249.415 357.682C246.076 359.634 241.843 359.09 239.107 356.356L208.656 325.946L213.491 319.534Z" fill="#3D3D3D"/>
</g>
</g>
<path d="M330.409 408.733L343.181 428.996L381.259 411.605L374.335 367.678L384.839 289.852L368.487 279.289L360.847 289.852H299.97L292.331 279.289L275.978 289.852L286.482 367.678L279.559 411.605L317.637 428.996L330.409 408.733Z" fill="#474747"/>
<path d="M330.409 348.795L332.915 349.535L351.294 299.822L351.775 290.329L330.409 278.685L309.042 290.329L309.523 299.822L327.902 349.535L330.409 348.795Z" fill="#C9EEF0"/>
<path d="M335.303 291.643L338.051 297.372L341.55 325.945L330.409 356.458L319.269 325.945L322.767 297.372L325.515 291.643H335.303Z" fill="#DD3958"/>
<path d="M330.409 277.436L338.765 274.215L341.549 286.152C341.987 286.509 338.05 297.372 338.05 297.372L330.409 297.208L322.767 297.372C322.767 297.372 318.83 286.509 319.269 286.152L322.053 274.215L330.409 277.436Z" fill="#F04D65"/>
<path d="M359.534 294.328L358.862 327.331L330.409 356.459L343.659 320.291L359.534 294.328Z" fill="#555555"/>
<path d="M301.284 294.328L301.956 327.331L330.409 356.459L317.16 320.291L301.284 294.328Z" fill="#555555"/>
<path d="M330.409 264.682L344.979 265.739L347.061 263.473L348.815 263.802C351.569 264.321 354.047 265.803 355.81 267.983L360.847 274.215L351.294 299.821L330.409 281.806L309.523 299.821L299.97 274.215L305.007 267.983C306.77 265.803 309.249 264.321 312.003 263.802L313.758 263.473L315.839 265.739L330.409 264.682Z" fill="#E8FDFF"/>
<path d="M330.409 281.806C338.825 278.698 344.402 273.778 347.469 270.423C349.326 268.39 350.022 265.561 349.298 262.905C348.078 258.429 346.215 251.695 346.078 251.775H314.741C314.602 251.695 312.741 258.429 311.519 262.905C310.795 265.561 311.491 268.39 313.35 270.423C316.415 273.778 321.993 278.698 330.409 281.806Z" fill="#F7B088"/>
<path d="M330.409 157.767C339.261 157.489 355.065 159.311 367.829 173.291C385.015 192.113 372.686 219.716 370.413 224.373C370.195 224.817 370.07 225.052 370.07 225.052L347.326 235.415L332.874 230.651L330.409 211.527L327.943 230.651L313.491 235.415L290.747 225.052C290.747 225.052 290.622 224.817 290.406 224.373C288.131 219.716 275.802 192.113 292.989 173.291C305.753 159.311 321.558 157.489 330.409 157.767Z" fill="#523434"/>
<path d="M367.829 173.291C367.141 172.538 366.441 171.835 365.737 171.151C367.849 174.619 369.585 178.874 369.441 183.438C369.083 194.718 359.436 195.423 359.436 195.423C359.436 195.423 343.659 210.295 358.699 226.41C359.539 227.31 360.357 228.212 361.159 229.114L370.071 225.052C370.071 225.052 370.195 224.818 370.412 224.374C372.687 219.716 385.016 192.114 367.829 173.291Z" fill="#402828"/>
<path d="M292.988 173.291C293.676 172.538 294.378 171.835 295.082 171.151C292.968 174.619 291.232 178.874 291.376 183.438C291.735 194.718 301.382 195.423 301.382 195.423C301.382 195.423 317.159 210.295 302.119 226.41C301.279 227.31 300.462 228.212 299.659 229.114L290.748 225.052C290.748 225.052 290.623 224.818 290.406 224.374C288.132 219.716 275.803 192.114 292.988 173.291Z" fill="#402828"/>
<path d="M330.409 270.091C340.547 270.091 350.687 265.438 357.478 256.132C357.567 256.01 357.658 255.886 357.746 255.762C360.491 251.928 362.502 247.25 363.945 242.231C365.589 244.098 369.283 245.259 374.663 239.282C381.722 231.438 382.426 222.128 375.783 218.722C371.975 216.768 368.95 219.036 366.865 224.38C367.562 213.16 366.354 203.016 364.805 199.094C360.994 189.454 349.126 189.219 342.845 195.332C338.879 199.192 334.146 199.574 330.409 199.692C326.671 199.574 321.939 199.192 317.973 195.332C311.691 189.219 299.823 189.454 296.014 199.094C294.465 203.016 293.255 213.16 293.953 224.38C291.867 219.036 288.843 216.768 285.034 218.722C278.393 222.128 279.095 231.438 286.154 239.282C291.534 245.259 295.229 244.098 296.873 242.231C298.315 247.25 300.326 251.928 303.071 255.762C303.161 255.886 303.25 256.01 303.339 256.132C310.131 265.438 320.27 270.091 330.409 270.091Z" fill="#FFDDC0"/>
<path d="M351.69 220.571C351.69 222.671 349.987 224.374 347.886 224.374C345.786 224.374 344.085 222.671 344.085 220.571C344.085 218.471 345.786 216.768 347.886 216.768C349.987 216.768 351.69 218.471 351.69 220.571Z" fill="#402828"/>
<path d="M349.736 220.571C349.736 221.592 348.908 222.419 347.886 222.419C346.866 222.419 346.038 221.592 346.038 220.571C346.038 219.549 346.866 218.721 347.886 218.721C348.908 218.721 349.736 219.549 349.736 220.571Z" fill="#281313"/>
<path d="M350.366 219.037C350.366 219.722 349.811 220.277 349.126 220.277C348.442 220.277 347.887 219.722 347.887 219.037C347.887 218.353 348.442 217.797 349.126 217.797C349.811 217.797 350.366 218.353 350.366 219.037Z" fill="white"/>
<path d="M316.734 220.571C316.734 222.671 315.031 224.374 312.931 224.374C310.831 224.374 309.128 222.671 309.128 220.571C309.128 218.471 310.831 216.768 312.931 216.768C315.031 216.768 316.734 218.471 316.734 220.571Z" fill="#402828"/>
<path d="M314.78 220.571C314.78 221.592 313.952 222.419 312.931 222.419C311.911 222.419 311.083 221.592 311.083 220.571C311.083 219.549 311.911 218.721 312.931 218.721C313.952 218.721 314.78 219.549 314.78 220.571Z" fill="#281313"/>
<path d="M315.41 219.037C315.41 219.722 314.854 220.277 314.17 220.277C313.486 220.277 312.931 219.722 312.931 219.037C312.931 218.353 313.486 217.797 314.17 217.797C314.854 217.797 315.41 218.353 315.41 219.037Z" fill="white"/>
<path d="M330.409 261.24H330.463C338.05 261.24 344.298 254.178 345.109 245.099C345.158 244.559 344.965 244.056 344.623 243.69C344.283 243.323 343.797 243.091 343.255 243.091H317.563C317.022 243.091 316.534 243.323 316.194 243.69C315.853 244.056 315.661 244.559 315.709 245.099C316.519 254.178 322.767 261.24 330.354 261.24H330.409Z" fill="#402828"/>
<path d="M330.409 261.24H330.465C336.001 261.24 340.814 257.47 343.33 251.907C339.765 250.423 335.337 249.532 330.521 249.532H330.409H330.297C325.481 249.532 321.053 250.423 317.487 251.907C320.005 257.47 324.817 261.24 330.354 261.24H330.409Z" fill="#F75B5B"/>
<path d="M330.409 238.038C331.229 238.038 332.047 237.812 332.771 237.363L335.898 235.415H324.919L328.047 237.363C328.77 237.812 329.589 238.038 330.409 238.038Z" fill="#FFC8A5"/>
<path d="M342.845 206.902C342.845 206.902 347.542 204.21 351.024 205.825C353.953 207.184 354.62 211.265 354.62 211.265L354 211.664C354 211.664 352.369 208.246 348.558 208.246C345.982 208.246 344.085 209.48 344.085 209.48L342.845 206.902Z" fill="#402828"/>
<path d="M317.973 206.902C317.973 206.902 313.275 204.21 309.794 205.825C306.865 207.184 306.198 211.265 306.198 211.265L306.818 211.664C306.818 211.664 308.45 208.246 312.259 208.246C314.835 208.246 316.734 209.48 316.734 209.48L317.973 206.902Z" fill="#402828"/>
<path d="M330.409 270.091C340.547 270.091 350.687 265.438 357.478 256.132C357.567 256.01 357.658 255.886 357.746 255.762C360.491 251.928 362.502 247.25 363.945 242.231C365.589 244.098 369.283 245.259 374.663 239.282C381.722 231.438 382.426 222.128 375.783 218.722C371.975 216.768 368.95 219.036 366.865 224.38C367.562 213.16 366.354 203.016 364.805 199.094C363.149 194.902 359.966 192.492 356.383 191.606C362.899 195.758 369.174 224.374 355.393 250.932C350.882 259.624 341.949 266.618 330.409 266.039C318.869 266.618 309.935 259.624 305.425 250.932C291.643 224.374 297.918 195.758 304.434 191.606C300.851 192.492 297.67 194.902 296.014 199.094C294.465 203.016 293.255 213.16 293.953 224.38C291.867 219.036 288.843 216.768 285.034 218.722C278.393 222.128 279.095 231.438 286.154 239.282C291.534 245.259 295.229 244.098 296.873 242.231C298.315 247.25 300.326 251.928 303.071 255.762C303.161 255.886 303.25 256.01 303.339 256.132C310.131 265.438 320.27 270.091 330.409 270.091Z" fill="#FFC8A5"/>
<mask id="mask6_19_5" style="mask-type:luminance" maskUnits="userSpaceOnUse" x="342" y="227" width="14" height="7">
<path d="M342.061 227.737H355.404V233.564H342.061V227.737Z" fill="white"/>
</mask>
<g mask="url(#mask6_19_5)">
<g opacity="0.199997">
<path d="M342.061 230.65C342.061 232.26 345.048 233.564 348.733 233.564C352.417 233.564 355.404 232.26 355.404 230.65C355.404 229.041 352.417 227.737 348.733 227.737C345.048 227.737 342.061 229.041 342.061 230.65Z" fill="#F75B5B"/>
</g>
</g>
<mask id="mask7_19_5" style="mask-type:luminance" maskUnits="userSpaceOnUse" x="344" y="229" width="9" height="4">
<path d="M344.661 229.165H352.803V232.135H344.661V229.165Z" fill="white"/>
</mask>
<g mask="url(#mask7_19_5)">
<g opacity="0.300003">
<path d="M345.81 230.987C346.608 231.785 347.406 232.281 347.592 232.096C347.779 231.909 347.282 231.112 346.483 230.313C345.684 229.515 344.887 229.019 344.7 229.204C344.514 229.391 345.011 230.188 345.81 230.987ZM348.395 230.987C349.194 231.785 349.992 232.281 350.178 232.096C350.364 231.909 349.867 231.112 349.068 230.313C348.271 229.515 347.472 229.019 347.286 229.204C347.1 229.391 347.598 230.188 348.395 230.987ZM349.872 229.204C350.059 229.019 350.856 229.515 351.655 230.313C352.452 231.112 352.95 231.909 352.764 232.096C352.578 232.281 351.78 231.785 350.982 230.987C350.183 230.188 349.686 229.391 349.872 229.204Z" fill="white"/>
</g>
</g>
<mask id="mask8_19_5" style="mask-type:luminance" maskUnits="userSpaceOnUse" x="305" y="227" width="14" height="7">
<path d="M305.415 227.737H318.757V233.564H305.415V227.737Z" fill="white"/>
</mask>
<g mask="url(#mask8_19_5)">
<g opacity="0.199997">
<path d="M305.414 230.65C305.414 232.26 308.401 233.564 312.086 233.564C315.77 233.564 318.757 232.26 318.757 230.65C318.757 229.041 315.77 227.737 312.086 227.737C308.401 227.737 305.414 229.041 305.414 230.65Z" fill="#F75B5B"/>
</g>
</g>
<mask id="mask9_19_5" style="mask-type:luminance" maskUnits="userSpaceOnUse" x="308" y="229" width="9" height="4">
<path d="M308.015 229.165H316.156V232.135H308.015V229.165Z" fill="white"/>
</mask>
<g mask="url(#mask9_19_5)">
<g opacity="0.300003">
<path d="M308.054 229.204C308.239 229.019 309.038 229.515 309.837 230.314C310.635 231.112 311.131 231.91 310.945 232.096C310.759 232.282 309.962 231.786 309.163 230.987C308.365 230.188 307.867 229.391 308.054 229.204ZM310.639 229.204C310.826 229.019 311.623 229.515 312.422 230.314C313.221 231.112 313.718 231.91 313.531 232.096C313.346 232.282 312.547 231.786 311.749 230.987C310.95 230.188 310.454 229.391 310.639 229.204ZM314.334 230.987C315.134 231.786 315.931 232.282 316.117 232.096C316.303 231.91 315.806 231.112 315.009 230.314C314.21 229.515 313.411 229.019 313.226 229.204C313.039 229.391 313.537 230.188 314.334 230.987Z" fill="white"/>
</g>
</g>
<path d="M376.233 226.812C376.233 226.812 375.952 223.842 373.15 224.46C370.35 225.076 368.669 229.389 369.286 230.901C369.902 232.414 369.79 233.366 368.557 234.206C367.325 235.046 369.062 237.433 370.462 236.829C371.864 236.224 373.404 233.59 372.185 231.293C370.966 228.997 372.784 223.962 376.233 226.812Z" fill="#EEAC86"/>
<path d="M284.586 226.812C284.586 226.812 284.866 223.842 287.667 224.46C290.467 225.076 292.149 229.389 291.531 230.901C290.917 232.414 291.029 233.366 292.261 234.206C293.493 235.046 291.755 237.433 290.355 236.829C288.955 236.224 287.415 233.59 288.633 231.293C289.851 228.997 288.034 223.962 284.586 226.812Z" fill="#EEAC86"/>
<path d="M360.848 274.215C360.848 274.215 364.497 275.382 368.486 279.289V300.118L341.549 325.945L360.848 274.215Z" fill="#666666"/>
<path d="M299.971 274.215C299.971 274.215 296.321 275.382 292.332 279.289V300.118L319.269 325.945L299.971 274.215Z" fill="#666666"/>
<path d="M338.376 258.383C340.43 256.763 342.139 254.539 343.331 251.907C341.6 251.187 339.664 250.61 337.582 250.203C338.644 252.009 339.312 254.666 338.376 258.383Z" fill="#DE4B4B"/>
<path d="M322.442 258.383C320.389 256.763 318.679 254.539 317.487 251.907C319.218 251.187 321.154 250.61 323.237 250.203C322.173 252.009 321.505 254.666 322.442 258.383Z" fill="#DE4B4B"/>
<mask id="mask10_19_5" style="mask-type:luminance" maskUnits="userSpaceOnUse" x="333" y="284" width="19" height="23">
<path d="M333.256 284.263H351.295V306.952H333.256V284.263Z" fill="white"/>
</mask>
<g mask="url(#mask10_19_5)">
<g opacity="0.300003">
<path d="M333.257 284.262L348.634 306.952L351.294 299.822L333.257 284.262Z" fill="#555555"/>
</g>
</g>
<mask id="mask11_19_5" style="mask-type:luminance" maskUnits="userSpaceOnUse" x="309" y="284" width="19" height="23">
<path d="M309.524 284.263H327.561V306.952H309.524V284.263Z" fill="white"/>
</mask>
<g mask="url(#mask11_19_5)">
<g opacity="0.300003">
<path d="M327.562 284.262L312.183 306.952L309.523 299.822L327.562 284.262Z" fill="#555555"/>
</g>
</g>
<path d="M438.555 307.899L447.327 300.88L461.284 317.207L452.161 325.946L438.555 307.899Z" fill="#E8FDFF"/>
<path d="M222.264 307.899L213.49 300.88L199.534 317.207L208.656 325.946L222.264 307.899Z" fill="#E8FDFF"/>
<mask id="mask12_19_5" style="mask-type:luminance" maskUnits="userSpaceOnUse" x="447" y="311" width="15" height="15">
<path d="M447.327 311.871H461.284V325.945H447.327V311.871Z" fill="white"/>
</mask>
<g mask="url(#mask12_19_5)">
<g opacity="0.300003">
<path d="M447.327 319.534L456.723 311.871L461.284 317.207L452.161 325.946L447.327 319.534Z" fill="#3D3D3D"/>
</g>
</g>
<mask id="mask13_19_5" style="mask-type:luminance" maskUnits="userSpaceOnUse" x="199" y="311" width="15" height="15">
<path d="M199.533 311.871H213.491V325.945H199.533V311.871Z" fill="white"/>
</mask>
<g mask="url(#mask13_19_5)">
<g opacity="0.300003">
<path d="M213.491 319.534L204.096 311.871L199.534 317.207L208.656 325.946L213.491 319.534Z" fill="#3D3D3D"/>
</g>
</g>
<path d="M461.651 300.881C461.651 300.881 466.127 295.605 460.667 290.329C460.667 290.329 462.547 297.913 461.651 300.881Z" fill="#FFC8A5"/>
<path d="M199.167 300.881C199.167 300.881 194.691 295.605 200.152 290.329C200.152 290.329 198.272 297.913 199.167 300.881Z" fill="#FFC8A5"/>
<path d="M377.699 342.762C377.699 342.762 371.83 364.992 368.487 368.036C365.145 371.08 360.847 372.871 360.847 372.871C360.847 372.871 367.651 373.587 370.515 372.871C370.515 372.871 372.915 402.314 374.166 414.846L381.259 411.606L374.337 367.678L377.699 342.762Z" fill="#3D3D3D"/>
<path d="M283.12 342.762C283.12 342.762 288.989 364.992 292.332 368.036C295.674 371.08 299.97 372.871 299.97 372.871C299.97 372.871 293.168 373.587 290.302 372.871C290.302 372.871 287.902 402.314 286.653 414.846L279.56 411.606L286.482 367.678L283.12 342.762Z" fill="#3D3D3D"/>
<mask id="mask14_19_5" style="mask-type:luminance" maskUnits="userSpaceOnUse" x="312" y="433" width="36" height="148">
<path d="M312.916 433.377H347.901V580.419H312.916V433.377Z" fill="white"/>
</mask>
<g mask="url(#mask14_19_5)">
<g opacity="0.300003">
<path d="M330.409 439.298C332.757 456.382 336.56 503.417 337.453 508.769C338.769 516.647 340.018 578.598 340.018 578.598C342.481 579.698 345.206 580.229 347.902 580.419C347.762 563.395 347.384 518.877 347.24 513.245C347.061 506.262 342.226 437.866 342.226 437.866C342.704 436.97 345.501 433.378 345.501 433.378C340.656 435.15 333.04 434.965 330.409 435.001C323.792 434.993 320.696 434.769 315.648 433.529C315.648 433.529 318.114 436.791 318.592 437.866C318.592 437.866 313.758 506.262 313.578 513.245C313.434 518.877 313.057 563.395 312.916 580.419C315.612 580.229 318.338 579.698 320.8 578.598C320.8 578.598 322.05 516.647 323.365 508.769C324.258 503.417 328.062 456.382 330.409 439.298Z" fill="#3D3D3D"/>
</g>
</g>
<mask id="mask15_19_5" style="mask-type:luminance" maskUnits="userSpaceOnUse" x="345" y="413" width="33" height="19">
<path d="M345.724 413.231H377.699V431.061H345.724V413.231Z" fill="white"/>
</mask>
<g mask="url(#mask15_19_5)">
<g opacity="0.300003">
<path d="M377.699 413.23L347.061 431.061L345.725 427.834L377.699 413.23Z" fill="#3D3D3D"/>
</g>
</g>
<mask id="mask16_19_5" style="mask-type:luminance" maskUnits="userSpaceOnUse" x="283" y="413" width="33" height="19">
<path d="M283.12 413.231H315.095V431.061H283.12V413.231Z" fill="white"/>
</mask>
<g mask="url(#mask16_19_5)">
<g opacity="0.300003">
<path d="M283.12 413.23L313.758 431.061L315.094 427.834L283.12 413.23Z" fill="#3D3D3D"/>
</g>
</g>
<path d="M356.561 587.782C355.009 586.401 355.188 583.908 356.868 582.688C358.816 581.274 362.089 579.276 364.309 579.91C367.651 580.866 376.245 592.204 376.245 592.204C376.245 592.204 393.512 593.272 394.58 609.237C394.681 610.749 393.415 611.997 391.911 611.816L340.427 605.64C339.52 605.532 338.804 604.818 338.688 603.913C337.872 597.525 338.336 591.037 340.051 584.829L356.711 587.908C356.711 587.908 356.653 587.865 356.561 587.782Z" fill="#3D3D3D"/>
<path d="M304.257 587.782C305.809 586.401 305.631 583.908 303.949 582.688C302.001 581.274 298.729 579.276 296.509 579.91C293.168 580.866 284.573 592.204 284.573 592.204C284.573 592.204 267.308 593.272 266.239 609.237C266.137 610.749 267.404 611.997 268.908 611.816L320.391 605.64C321.299 605.532 322.015 604.818 322.131 603.913C322.945 597.525 322.481 591.037 320.767 584.829L304.107 587.908C304.107 587.908 304.164 587.865 304.257 587.782Z" fill="#3D3D3D"/>
<mask id="mask17_19_5" style="mask-type:luminance" maskUnits="userSpaceOnUse" x="338" y="601" width="57" height="11">
<path d="M338.427 601.349H394.585V611.834H338.427V601.349Z" fill="white"/>
</mask>
<g mask="url(#mask17_19_5)">
<g opacity="0.300003">
<path d="M394.579 609.237C394.531 608.521 394.441 607.843 394.33 607.186C393.495 607.761 392.07 608.41 389.973 608.201C386.793 607.881 347.475 602.643 338.427 601.35C338.489 602.634 338.525 602.633 338.687 603.913C338.803 604.819 339.519 605.531 340.427 605.639L391.91 611.817C393.414 611.997 394.681 610.749 394.579 609.237Z" fill="#3D3D3D"/>
</g>
</g>
<mask id="mask18_19_5" style="mask-type:luminance" maskUnits="userSpaceOnUse" x="266" y="601" width="57" height="11">
<path d="M266.233 601.349H322.391V611.834H266.233V601.349Z" fill="white"/>
</mask>
<g mask="url(#mask18_19_5)">
<g opacity="0.300003">
<path d="M266.238 609.237C266.286 608.521 266.377 607.843 266.488 607.186C267.322 607.761 268.748 608.41 270.846 608.201C274.025 607.881 313.342 602.643 322.392 601.35C322.33 602.634 322.294 602.633 322.13 603.913C322.016 604.819 321.298 605.531 320.39 605.639L268.908 611.817C267.404 611.997 266.137 610.749 266.238 609.237Z" fill="#3D3D3D"/>
</g>
</g>
<mask id="mask19_19_5" style="mask-type:luminance" maskUnits="userSpaceOnUse" x="339" y="584" width="22" height="8">
<path d="M339.463 584.83H360.251V591.847H339.463V584.83Z" fill="white"/>
</mask>
<g mask="url(#mask19_19_5)">
<g opacity="0.300003">
<path d="M340.051 584.829C339.835 585.613 339.639 586.401 339.463 587.192L360.249 591.847L356.711 587.908L340.051 584.829Z" fill="#3D3D3D"/>
</g>
</g>
<mask id="mask20_19_5" style="mask-type:luminance" maskUnits="userSpaceOnUse" x="300" y="584" width="22" height="8">
<path d="M300.568 584.83H321.356V591.847H300.568V584.83Z" fill="white"/>
</mask>
<g mask="url(#mask20_19_5)">
<g opacity="0.300003">
<path d="M320.767 584.829C320.984 585.613 321.179 586.401 321.356 587.192L300.568 591.847L304.107 587.908L320.767 584.829Z" fill="#3D3D3D"/>
</g>
</g>
<path d="M332.334 362.471C332.334 363.534 331.473 364.395 330.409 364.395C329.346 364.395 328.485 363.534 328.485 362.471C328.485 361.409 329.346 360.547 330.409 360.547C331.473 360.547 332.334 361.409 332.334 362.471Z" fill="#C9EEF0"/>
<path d="M331.603 362.471C331.603 363.13 331.068 363.666 330.408 363.666C329.749 363.666 329.215 363.13 329.215 362.471C329.215 361.813 329.749 361.277 330.408 361.277C331.068 361.277 331.603 361.813 331.603 362.471Z" fill="#AED6D7"/>
<path d="M330.409 361.815C330.973 361.815 331.423 362.215 331.547 362.739C331.57 362.651 331.603 362.566 331.603 362.471C331.603 361.812 331.069 361.278 330.409 361.278C329.75 361.278 329.215 361.812 329.215 362.471C329.215 362.566 329.249 362.651 329.27 362.739C329.394 362.215 329.845 361.815 330.409 361.815Z" fill="#8EBDBD"/>
<path d="M332.334 383.197C332.334 384.259 331.473 385.121 330.409 385.121C329.346 385.121 328.485 384.259 328.485 383.197C328.485 382.133 329.346 381.271 330.409 381.271C331.473 381.271 332.334 382.133 332.334 383.197Z" fill="#C9EEF0"/>
<path d="M331.603 383.197C331.603 383.855 331.068 384.39 330.408 384.39C329.749 384.39 329.215 383.855 329.215 383.197C329.215 382.537 329.749 382.002 330.408 382.002C331.068 382.002 331.603 382.537 331.603 383.197Z" fill="#AED6D7"/>
<path d="M330.409 382.539C330.973 382.539 331.423 382.939 331.547 383.464C331.57 383.376 331.603 383.291 331.603 383.196C331.603 382.536 331.069 382.003 330.409 382.003C329.75 382.003 329.215 382.536 329.215 383.196C329.215 383.291 329.249 383.376 329.27 383.464C329.394 382.939 329.845 382.539 330.409 382.539Z" fill="#8EBDBD"/>
<path d="M332.334 403.92C332.334 404.983 331.473 405.844 330.409 405.844C329.346 405.844 328.485 404.983 328.485 403.92C328.485 402.858 329.346 401.996 330.409 401.996C331.473 401.996 332.334 402.858 332.334 403.92Z" fill="#C9EEF0"/>
<path d="M331.603 403.92C331.603 404.579 331.068 405.115 330.408 405.115C329.749 405.115 329.215 404.579 329.215 403.92C329.215 403.262 329.749 402.726 330.408 402.726C331.068 402.726 331.603 403.262 331.603 403.92Z" fill="#AED6D7"/>
<path d="M330.409 403.264C330.973 403.264 331.423 403.664 331.547 404.188C331.57 404.1 331.603 404.015 331.603 403.92C331.603 403.261 331.069 402.727 330.409 402.727C329.75 402.727 329.215 403.261 329.215 403.92C329.215 404.015 329.249 404.1 329.27 404.188C329.394 403.664 329.845 403.264 330.409 403.264Z" fill="#8EBDBD"/>
<path d="M240.62 417.643C240.62 444.071 219.196 465.496 192.767 465.496C166.339 465.496 144.915 444.071 144.915 417.643C144.915 391.215 166.339 369.79 192.767 369.79C219.196 369.79 240.62 391.215 240.62 417.643Z" fill="#BAE8EB"/>
<path d="M160.971 446.423H203.341V433.655H160.971V446.423Z" fill="white"/>
<path d="M205.613 437.19L164.494 436.63L159.171 442.079V395.321C159.171 390.761 162.867 387.065 167.427 387.065H205.613V437.19Z" fill="#FF7587"/>
<path d="M203.106 445.716H201.774H165.314C164.342 445.716 163.429 445.339 162.742 444.651C162.056 443.965 161.677 443.052 161.677 442.08C161.677 441.108 162.056 440.193 162.742 439.508C163.429 438.821 164.342 438.443 165.314 438.443H201.774H203.106H205.613V435.937H165.314C163.673 435.937 162.132 436.576 160.97 437.736C159.81 438.895 159.172 440.437 159.172 442.08C159.172 443.721 159.81 445.264 160.97 446.423C162.132 447.583 163.673 448.223 165.314 448.223H205.613V445.716H203.106Z" fill="#DE4C64"/>
<path d="M229.793 432.581H198.997V397.744H229.793V432.581Z" fill="white"/>
<path d="M226.188 406.977H206.935V405.115H226.188V406.977Z" fill="#BAE8EB"/>
<path d="M226.188 414.163H202.601V412.3H226.188V414.163Z" fill="#BAE8EB"/>
<path d="M226.188 421.348H202.601V419.485H226.188V421.348Z" fill="#BAE8EB"/>
<path d="M222.512 428.532H202.601V426.669H222.512V428.532Z" fill="#BAE8EB"/>
<path d="M415.825 417.643C415.825 444.071 437.249 465.496 463.679 465.496C490.107 465.496 511.531 444.071 511.531 417.643C511.531 391.215 490.107 369.79 463.679 369.79C437.249 369.79 415.825 391.215 415.825 417.643Z" fill="#BAE8EB"/>
<path d="M484.655 403.129L470.127 388.601L474.151 384.578C475.11 383.619 474.452 381.979 473.098 381.949L453.899 381.519C452.511 381.489 451.794 383.165 452.776 384.147L457.231 388.601L442.703 403.129C434.59 411.241 432.159 422.885 435.408 433.114C436.8 437.49 439.232 441.607 442.703 445.079C450.888 453.265 462.667 455.666 472.96 452.286C477.236 450.881 481.255 448.479 484.655 445.079C486.232 443.502 487.595 441.791 488.742 439.983C496.024 428.513 494.662 413.135 484.655 403.129Z" fill="#118D6B"/>
<mask id="mask21_19_5" style="mask-type:luminance" maskUnits="userSpaceOnUse" x="434" y="381" width="56" height="73">
<path d="M434.015 381.519H489.229V453.768H434.015V381.519Z" fill="white"/>
</mask>
<g mask="url(#mask21_19_5)">
<g opacity="0.300003">
<path d="M457.23 388.602L464.084 388.13L459.292 381.747L453.898 381.519C452.51 381.488 451.794 383.166 452.776 384.147L457.23 388.602Z" fill="#118D6B"/>
<path d="M483.48 441.766C473.186 445.146 461.408 442.744 453.224 434.56C449.752 431.088 447.32 426.97 445.93 422.594C442.678 412.364 445.111 400.722 453.224 392.608L442.703 403.128C434.59 411.24 432.159 422.886 435.408 433.115C436.8 437.491 439.231 441.608 442.703 445.079C450.888 453.264 462.667 455.667 472.959 452.287C477.235 450.882 481.255 448.479 484.655 445.079C486.231 443.503 487.595 441.792 488.742 439.983C488.918 439.707 489.063 439.419 489.23 439.138C487.39 440.223 485.467 441.114 483.48 441.766Z" fill="#118D6B"/>
</g>
</g>
<path d="M473.237 392.654H454.121C453.181 392.654 452.418 391.892 452.418 390.952V389.834C452.418 388.894 453.181 388.13 454.121 388.13H473.237C474.177 388.13 474.938 388.894 474.938 389.834V390.952C474.938 391.892 474.177 392.654 473.237 392.654Z" fill="#BBAB28"/>
<path d="M465.148 423.904V432.397C467.322 431.994 468.69 430.708 468.69 428.412C468.69 425.876 467.12 424.749 465.148 423.904ZM463.256 418.67V411.345C461.002 411.628 459.392 412.634 459.392 414.726C459.392 417.021 461.122 417.866 463.256 418.67ZM463.014 436.382C458.023 436.301 454.642 433.604 454.642 431.633C454.642 430.666 455.487 429.337 456.494 429.337C457.822 429.337 458.908 432.156 463.014 432.477V423.018C459.392 421.73 455.367 420.281 455.367 415.129C455.367 410.058 459.191 408.045 463.014 407.642V406.476C463.014 405.99 463.498 405.549 464.182 405.549C464.786 405.549 465.39 405.99 465.39 406.476V407.561C468.126 407.642 471.991 408.486 471.991 410.46C471.991 411.225 471.427 412.754 470.219 412.754C469.252 412.754 468.206 411.466 465.39 411.265V419.434C468.891 420.722 472.715 422.494 472.715 427.97C472.715 432.921 469.736 435.657 465.39 436.262V437.629C465.39 438.113 464.786 438.554 464.182 438.554C463.498 438.554 463.014 438.113 463.014 437.629V436.382Z" fill="#BCE4E6"/>
<path d="M200.152 207.685C200.152 234.113 178.728 255.538 152.298 255.538C125.87 255.538 104.446 234.113 104.446 207.685C104.446 181.257 125.87 159.833 152.298 159.833C178.728 159.833 200.152 181.257 200.152 207.685Z" fill="#BAE8EB"/>
<path d="M141.578 239.209H145.875L152.769 221.841H148.471L141.578 239.209Z" fill="#787878"/>
<mask id="mask22_19_5" style="mask-type:luminance" maskUnits="userSpaceOnUse" x="144" y="221" width="9" height="19">
<path d="M144.085 221.841H152.769V239.209H144.085V221.841Z" fill="white"/>
</mask>
<g mask="url(#mask22_19_5)">
<g opacity="0.300003">
<path d="M150.979 221.841L144.085 239.209H145.876L152.769 221.841H150.979Z" fill="#3D3D3D"/>
</g>
</g>
<path d="M163.019 239.209H158.722L151.829 221.841H156.126L163.019 239.209Z" fill="#787878"/>
<mask id="mask23_19_5" style="mask-type:luminance" maskUnits="userSpaceOnUse" x="151" y="221" width="10" height="19">
<path d="M151.829 221.841H160.513V239.209H151.829V221.841Z" fill="white"/>
</mask>
<g mask="url(#mask23_19_5)">
<g opacity="0.300003">
<path d="M153.619 221.841L160.513 239.209H158.722L151.829 221.841H153.619Z" fill="#3D3D3D"/>
</g>
</g>
<path d="M183.453 222.419H121.145V184.957H183.453V222.419Z" fill="white"/>
<path d="M185.201 182.361H119.396V185.225H185.201V182.361Z" fill="#787878"/>
<mask id="mask24_19_5" style="mask-type:luminance" maskUnits="userSpaceOnUse" x="119" y="184" width="67" height="2">
<path d="M119.397 184.209H185.201V185.225H119.397V184.209Z" fill="white"/>
</mask>
<g mask="url(#mask24_19_5)">
<g opacity="0.300003">
<path d="M185.201 184.209H119.396V185.225H185.201V184.209Z" fill="#3D3D3D"/>
</g>
</g>
<path d="M185.201 220.409H119.396V223.273H185.201V220.409Z" fill="#787878"/>
<mask id="mask25_19_5" style="mask-type:luminance" maskUnits="userSpaceOnUse" x="119" y="222" width="67" height="2">
<path d="M119.397 222.257H185.201V223.273H119.397V222.257Z" fill="white"/>
</mask>
<g mask="url(#mask25_19_5)">
<g opacity="0.300003">
<path d="M185.201 222.257H119.396V223.273H185.201V222.257Z" fill="#3D3D3D"/>
</g>
</g>
<path d="M165.376 202.678V193.39C163.04 193.408 160.71 194.305 158.927 196.088C155.326 199.688 155.326 205.526 158.927 209.128C162.527 212.729 168.366 212.729 171.967 209.128C173.75 207.345 174.647 205.014 174.664 202.678H165.376Z" fill="#008FC4"/>
<path d="M166.389 201.665H175.677C175.695 199.281 174.799 196.893 172.98 195.075C171.161 193.256 168.773 192.36 166.389 192.377V201.665Z" fill="#FC5F82"/>
<path d="M151.181 192.377H127.129V191.404H151.181V192.377Z" fill="#9CA3A7"/>
<path d="M151.181 199.061H127.129V198.088H151.181V199.061Z" fill="#9CA3A7"/>
<path d="M151.181 205.747H127.129V204.773H151.181V205.747Z" fill="#9CA3A7"/>
<path d="M151.181 212.431H127.129V211.457H151.181V212.431Z" fill="#9CA3A7"/>
<path d="M378.262 86.5871C378.262 113.015 356.838 134.44 330.408 134.44C303.982 134.44 282.556 113.015 282.556 86.5871C282.556 60.1591 303.982 38.7338 330.408 38.7338C356.838 38.7338 378.262 60.1591 378.262 86.5871Z" fill="#BAE8EB"/>
<path d="M356.073 116.769H304.745V53.864H356.073V116.769Z" fill="#787878"/>
<path d="M354.555 112.98H306.264V57.6545H354.555V112.98Z" fill="white"/>
<path d="M341.152 60.1008H319.666C319.236 60.1008 318.839 59.9675 318.511 59.7395C317.983 59.3742 317.636 58.7635 317.636 58.0715V53.8942C317.636 53.2395 317.947 52.6582 318.427 52.2875C318.77 52.0222 319.2 51.8648 319.666 51.8648H341.152C341.64 51.8648 342.088 52.0368 342.438 52.3235C342.892 52.6968 343.18 53.2622 343.18 53.8942V58.0715C343.18 58.3515 343.124 58.6195 343.022 58.8622C342.714 59.5902 341.992 60.1008 341.152 60.1008Z" fill="#FFFFAD"/>
<path d="M341.152 56.6393H319.666C318.546 56.6393 317.636 55.7313 317.636 54.6099V58.0713C317.636 59.1926 318.546 60.1006 319.666 60.1006H341.152C342.272 60.1006 343.18 59.1926 343.18 58.0713V54.6099C343.18 55.7313 342.272 56.6393 341.152 56.6393Z" fill="#ECE890"/>
<path d="M341.629 64.6372H319.189V63.0852H341.629V64.6372Z" fill="#9CA3A7"/>
<path d="M350.523 74.0665H318.831V72.5145H350.523V74.0665Z" fill="#9CA3A7"/>
<path d="M350.523 81.1093H310.297V79.5573H350.523V81.1093Z" fill="#9CA3A7"/>
<path d="M350.523 88.1519H310.297V86.5999H350.523V88.1519Z" fill="#9CA3A7"/>
<path d="M350.523 95.1946H310.297V93.6426H350.523V95.1946Z" fill="#9CA3A7"/>
<path d="M350.523 106.892H336.796V105.34H350.523V106.892Z" fill="#9CA3A7"/>
<path d="M328.081 102.237H310.296V100.685H328.081V102.237Z" fill="#9CA3A7"/>
<path d="M339.898 98.9244L343.658 103.848L352.432 95.7017L343.658 100.686L339.898 98.9244Z" fill="#FC5F82"/>
<path d="M456.294 207.685C456.294 234.113 477.718 255.538 504.148 255.538C530.576 255.538 552 234.113 552 207.685C552 181.257 530.576 159.833 504.148 159.833C477.718 159.833 456.294 181.257 456.294 207.685Z" fill="#BAE8EB"/>
<path d="M519.516 207.656C519.516 216.16 512.621 223.053 504.117 223.053C495.614 223.053 488.72 216.16 488.72 207.656C488.72 199.152 495.614 192.258 504.117 192.258C512.621 192.258 519.516 199.152 519.516 207.656ZM533.241 199.114C532.656 197.121 531.884 195.21 530.925 193.409L532.67 189.794L529.733 186.857L525.213 182.338L522.277 179.401L518.794 181.082C516.933 180.05 514.949 179.212 512.873 178.588L511.616 174.985H507.462H501.072H496.918L495.69 178.504C493.546 179.122 491.493 179.952 489.573 181.002L486.257 179.401L483.32 182.338L478.801 186.857L475.864 189.794L477.464 193.11C476.414 195.03 475.585 197.084 474.966 199.228L471.448 200.456V204.609V211V215.154L475.049 216.41C475.674 218.488 476.513 220.469 477.544 222.333L475.864 225.814L478.801 228.752L483.32 233.27L486.257 236.208L489.873 234.462C491.672 235.421 493.584 236.194 495.577 236.778L496.918 240.624H501.072H507.462H511.616L512.988 236.694C514.917 236.105 516.766 235.333 518.513 234.39L522.277 236.208L525.213 233.27L529.733 228.752L532.67 225.814L530.853 222.05C531.796 220.305 532.568 218.456 533.156 216.524L537.086 215.154V211V204.609V200.456L533.241 199.114Z" fill="#9C9C9C"/>
<path d="M518.654 207.664C518.654 215.686 512.15 222.19 504.126 222.19C496.103 222.19 489.599 215.686 489.599 207.664C489.599 199.641 496.103 193.137 504.126 193.137C512.15 193.137 518.654 199.641 518.654 207.664ZM531.603 199.605C531.052 197.724 530.323 195.921 529.418 194.222L531.064 190.812L528.292 188.041L524.03 183.777L521.259 181.006L517.974 182.592C516.216 181.62 514.346 180.829 512.387 180.24L511.2 176.84H507.282H501.252H497.334L496.176 180.16C494.152 180.744 492.215 181.526 490.404 182.517L487.275 181.006L484.504 183.777L480.24 188.041L477.468 190.812L478.979 193.941C477.988 195.752 477.206 197.69 476.623 199.713L473.303 200.87V204.789V210.818V214.738L476.702 215.924C477.292 217.884 478.082 219.753 479.055 221.51L477.468 224.796L480.24 227.568L484.504 231.83L487.275 234.602L490.686 232.956C492.384 233.86 494.187 234.589 496.068 235.14L497.334 238.768H501.252H507.282H511.2L512.494 235.06C514.315 234.505 516.06 233.776 517.707 232.886L521.259 234.602L524.03 231.83L528.292 227.568L531.064 224.796L529.35 221.245C530.238 219.597 530.967 217.853 531.523 216.03L535.231 214.738V210.818V204.789V200.87L531.603 199.605Z" fill="#787878"/>
<mask id="mask26_19_5" style="mask-type:luminance" maskUnits="userSpaceOnUse" x="482" y="186" width="44" height="44">
<path d="M482.467 186.004H525.769V229.307H482.467V186.004Z" fill="white"/>
</mask>
<g mask="url(#mask26_19_5)">
<g opacity="0.300003">
<path d="M504.117 223.053C495.615 223.053 488.72 216.159 488.72 207.655C488.72 199.151 495.615 192.258 504.117 192.258C512.621 192.258 519.516 199.151 519.516 207.655C519.516 216.159 512.621 223.053 504.117 223.053ZM504.117 186.003C492.16 186.003 482.467 195.698 482.467 207.655C482.467 219.613 492.16 229.307 504.117 229.307C516.076 229.307 525.769 219.613 525.769 207.655C525.769 195.698 516.076 186.003 504.117 186.003Z" fill="#3D3D3D"/>
</g>
</g>
</g>
</svg>
